<?xml version="1.0" encoding="UTF-8"?>
<svg version="1.1" xmlns="http://www.w3.org/2000/svg" width="512" height="512">
<path d="M0 0 C8.04680819 6.94868824 15.60291138 14.44974462 23.12109375 21.95996094 C24.17036366 23.0045843 25.21982338 24.04901702 26.26945496 25.09327698 C29.07923759 27.89012984 31.88584828 30.69014282 34.69141388 33.49122524 C36.44925325 35.24610849 38.20766737 37.0004139 39.96624756 38.75455475 C45.48404429 44.25874216 50.99988501 49.76487836 56.51282501 55.27393031 C62.85057331 61.60718164 69.19484513 67.93380244 75.54475498 74.25485969 C80.47686634 79.16534294 85.40318648 84.08158727 90.32516384 89.00222802 C93.25581601 91.93183512 96.18881853 94.85899036 99.12789917 97.78014374 C101.8859474 100.52168657 104.63671347 103.27033384 107.38213539 106.02451897 C108.38730145 107.03045345 109.39501402 108.03385113 110.40550804 109.03443336 C117.67781896 116.23959406 123.54671146 122.20067183 124.25 132.75 C124.15084549 139.40574635 121.71844869 145.28155131 117 150 C110.84268105 154.25833273 105.45493347 155.69633994 98 155 C86.07093384 152.11393561 77.60191905 140.74808735 69.22607422 132.33959961 C68.1903448 131.3035873 67.15439351 130.26779676 66.11824036 129.23220825 C63.33775337 126.45200524 60.56033516 123.66875554 57.78350592 120.88489985 C54.86921289 117.96430615 51.95204017 115.0465915 49.03518677 112.1285553 C43.52632306 106.61659791 38.02001087 101.10209908 32.51463711 95.58665615 C26.24082534 89.30162191 19.96413432 83.01946639 13.68721366 76.73753726 C0.78829561 63.82819933 -12.10704722 50.91529551 -25 38 C-28.5902231 39.5218609 -30.87439714 41.63440846 -33.60993958 44.38961792 C-34.53087906 45.31214355 -35.45181854 46.23466919 -36.40066528 47.18515015 C-37.4140827 48.21042997 -38.42741606 49.23579287 -39.44067383 50.26123047 C-40.5131832 51.33921642 -41.58615745 52.41674003 -42.65956116 53.49383545 C-44.96937009 55.81335291 -47.27608286 58.13589128 -49.58051491 60.46075058 C-53.22718248 64.13925015 -56.88201457 67.80956345 -60.53825378 71.47854614 C-69.62023349 80.59460434 -78.69292738 89.71988939 -87.76068115 98.85009766 C-94.8049344 105.94284519 -101.85237001 113.03235633 -108.91043681 120.11136162 C-112.54273861 123.75516481 -116.16799187 127.4057935 -119.78806841 131.06174064 C-122.04635412 133.33927393 -124.31092538 135.61047682 -126.57726097 137.87999725 C-127.62354017 138.93028176 -128.66724442 139.98313898 -129.70809937 141.03879929 C-143.02164421 154.53477628 -143.02164421 154.53477628 -153.75 155.25 C-160.40574635 155.15084549 -166.28155131 152.71844869 -171 148 C-175.25833273 141.84268105 -176.69633994 136.45493347 -176 129 C-173.10849828 117.04845955 -161.69418558 108.54401971 -153.28295898 100.13769531 C-152.24024172 99.09197712 -151.19772659 98.04605735 -150.15539551 96.99995422 C-147.35416235 94.18997821 -144.54978087 91.3831658 -141.7444942 88.57723713 C-139.98714956 86.81917716 -138.23052075 85.06040515 -136.47413826 83.30138397 C-130.3336632 77.15169224 -124.19064633 71.00455309 -118.04516602 64.85986328 C-112.3357381 59.15103725 -106.63192613 53.43664233 -100.93068641 47.71964002 C-96.01510722 42.79095982 -91.09565433 37.86616867 -86.17320114 32.94435382 C-83.24204126 30.01344788 -80.31242692 27.08103845 -77.38671684 24.14469147 C-74.63730562 21.38555434 -71.88307423 18.63131932 -69.12517548 15.88066673 C-68.11893259 14.87546366 -67.11436733 13.86857774 -66.11168861 12.85981941 C-47.73595086 -5.620037 -24.17969902 -16.91702722 0 0 Z " fill="#000000" transform="translate(282,59)"/>
<path d="M0 0 C7.39582168 6.00406491 14.05859273 12.91889588 20.77392578 19.66040039 C21.8096552 20.6964127 22.84560649 21.73220324 23.88175964 22.76779175 C26.66224663 25.54799476 29.43966484 28.33124446 32.21649408 31.11510015 C35.13078711 34.03569385 38.04795983 36.9534085 40.96481323 39.8714447 C46.47367694 45.38340209 51.97998913 50.89790092 57.48536289 56.41334385 C63.75917466 62.69837809 70.03586568 68.98053361 76.31278634 75.26246274 C89.21170439 88.17180067 102.10704722 101.08470449 115 114 C118.5902231 112.4781391 120.87439714 110.36559154 123.60993958 107.61038208 C124.53087906 106.68785645 125.45181854 105.76533081 126.40066528 104.81484985 C127.4140827 103.78957003 128.42741606 102.76420713 129.44067383 101.73876953 C130.5131832 100.66078358 131.58615745 99.58325997 132.65956116 98.50616455 C134.96937009 96.18664709 137.27608286 93.86410872 139.58051491 91.53924942 C143.22718248 87.86074985 146.88201457 84.19043655 150.53825378 80.52145386 C159.62023349 71.40539566 168.69292738 62.28011061 177.76068115 53.14990234 C184.8049344 46.05715481 191.85237001 38.96764367 198.91043681 31.88863838 C202.54273861 28.24483519 206.16799187 24.5942065 209.78806841 20.93825936 C212.04635412 18.66072607 214.31092538 16.38952318 216.57726097 14.12000275 C217.62354017 13.06971824 218.66724442 12.01686102 219.70809937 10.96120071 C233.02164421 -2.53477628 233.02164421 -2.53477628 243.75 -3.25 C250.40574635 -3.15084549 256.28155131 -0.71844869 261 4 C265.26765908 10.17080434 266.67246621 15.53425265 266 23 C264.70581373 28.97316741 262.18796725 32.11957579 258.03581238 36.58401489 C257.54732415 37.10980987 257.05883593 37.63560484 256.55554503 38.177333 C251.55873717 43.52739047 246.41692266 48.73086473 241.23950195 53.90576172 C240.21619525 54.93207211 239.19308959 55.958583 238.17016602 56.98527527 C235.4310173 59.73313596 232.68875061 62.47786302 229.94556451 65.22169256 C228.22606698 66.94190686 226.50728589 68.66283375 224.78874779 70.3840065 C218.77793442 76.40402413 212.76459241 82.42150215 206.7487793 88.43652344 C201.16314124 94.02155896 195.58312781 99.61217109 190.00567085 105.20537555 C185.19196125 110.03218607 180.37437822 114.85510748 175.55379456 119.67505276 C172.68526262 122.54333088 169.81827321 125.41310855 166.95519447 128.2868309 C164.2664942 130.98525776 161.57297378 133.67878068 158.87578583 136.36872292 C157.89211719 137.35135205 156.91012489 138.33566287 155.93002129 139.32184792 C144.16458487 151.15550461 133.32878482 159.80127642 116.125 160.3125 C89.37823954 159.7687285 71.88489297 135.05681151 54.40912127 117.60930991 C52.67020359 115.87335138 50.93071248 114.13796937 49.19105721 112.40275002 C43.73093296 106.95622713 38.27275848 101.50776177 32.81748527 96.05637997 C26.54879628 89.79219017 20.27357865 83.53463705 13.99273723 77.28263253 C9.11156086 72.42308393 4.23617557 67.55777471 -0.63486713 62.68806869 C-3.53420537 59.78977526 -6.435891 56.89393185 -9.34366035 54.00409508 C-12.07135349 51.29290745 -14.79176333 48.57461625 -17.50683022 45.85078621 C-18.50070929 44.8561388 -19.49713427 43.86402746 -20.49634171 42.87473297 C-27.73721569 35.70148283 -33.54992479 29.75112822 -34.25 19.25 C-34.15084549 12.59425365 -31.71844869 6.71844869 -27 2 C-18.67291433 -3.75891906 -9.06118768 -5.24840719 0 0 Z " fill="#000000" transform="translate(140,301)"/>
</svg>
