<?xml version="1.0" encoding="UTF-8"?>
<svg version="1.1" xmlns="http://www.w3.org/2000/svg" width="512" height="512">
<path d="M0 0 C7.22536629 5.87855189 13.76545924 12.61689141 20.34326172 19.19799805 C21.33311272 20.18484751 22.32316504 21.17149507 23.31340027 22.15795898 C25.97035005 24.80617463 28.62414426 27.45752965 31.27705145 30.10979438 C32.93861037 31.77063778 34.60088129 33.43076517 36.26340103 35.09064674 C42.07362434 40.89165818 47.88129974 46.69520612 53.68652344 52.5012207 C59.08410504 57.89940492 64.48726235 63.29196377 69.89301288 68.68196648 C74.55159241 73.32746104 79.20629882 77.97681245 83.8580209 82.62917358 C86.62901411 85.40042109 89.40151992 88.17011158 92.17794418 90.93591881 C94.78439832 93.53267353 97.38598339 96.13421048 99.98395729 98.73944855 C101.38723496 100.14426475 102.79544324 101.54415037 104.20381165 102.94386292 C111.1041215 109.87859312 116.08549338 114.99609735 116.3125 125.1875 C116.24129802 131.01311655 115.7584036 135.41912027 112 140 C106.5012207 145.04515766 102.2179326 147.14577256 94.6875 147.25 C93.02267578 147.28867187 93.02267578 147.28867187 91.32421875 147.328125 C85.43020492 146.7463422 81.42819606 143.7974813 77.17214966 139.85255432 C76.30896244 139.05365343 75.44577522 138.25475254 74.55643082 137.43164253 C70.73153414 133.79345237 66.96919293 130.10080542 63.24560547 126.35913086 C62.43459885 125.54827026 61.62359222 124.73740967 60.78800964 123.90197754 C58.14535427 121.25863331 55.50624458 118.61178 52.8671875 115.96484375 C51.02081876 114.11660717 49.17422707 112.26859331 47.3274231 110.42079163 C42.9872828 106.07756335 38.64969427 101.73179614 34.3130542 97.38507324 C29.36933518 92.43011371 24.42272103 87.47804863 19.47588134 82.52620494 C9.314067 72.35398367 -0.84417066 62.17819645 -11 52 C-14.19466196 53.40898321 -16.32728496 55.08313583 -18.78146362 57.55441284 C-19.51873688 58.29182709 -20.25601013 59.02924133 -21.015625 59.78900146 C-21.81468262 60.59839172 -22.61374023 61.40778198 -23.43701172 62.24169922 C-24.28627228 63.09388031 -25.13553284 63.9460614 -26.01052856 64.82406616 C-27.85486925 66.67602035 -29.69729447 68.52967326 -31.53676987 70.38644028 C-34.44846653 73.32522333 -37.36781318 76.25632609 -40.2883606 79.18630981 C-47.01639626 85.93842109 -53.7344007 92.70048445 -60.45228577 99.46269226 C-66.60513917 105.65595008 -72.76011232 111.84706108 -78.92325032 118.03008664 C-81.34882879 120.46397631 -83.77220695 122.89997713 -86.1906395 125.34096909 C-88.89069417 128.06496619 -91.59678846 130.78282868 -94.30419922 133.49951172 C-95.09920837 134.30485352 -95.89421753 135.11019531 -96.71331787 135.93994141 C-103.34646953 142.57435192 -108.42463954 147.09503886 -118.1875 147.3125 C-124.01311655 147.24129802 -128.41912027 146.7584036 -133 143 C-138.04515766 137.5012207 -140.14577256 133.2179326 -140.25 125.6875 C-140.27578125 124.57761719 -140.3015625 123.46773438 -140.328125 122.32421875 C-139.75203107 116.48783854 -136.85581244 112.49018469 -132.94888306 108.27145386 C-132.14919727 107.40746853 -131.34951149 106.5434832 -130.5255928 105.6533165 C-126.3466896 101.26307877 -122.10100865 96.94518946 -117.81787109 92.65673828 C-116.8326539 91.66687726 -115.84762856 90.67682524 -114.86277771 89.68659973 C-112.21870904 87.02957142 -109.57145406 84.37574198 -106.92313719 81.72294855 C-105.26441341 80.06127235 -103.60626917 78.39901988 -101.94829178 76.73659897 C-96.74737853 71.52206566 -91.54450818 66.30949713 -86.33872259 61.09982789 C-80.35183107 55.10844313 -74.37156436 49.11054697 -68.39688241 43.10698712 C-63.75820258 38.44667277 -59.11375636 33.79215673 -54.46491492 29.1419791 C-51.69624392 26.37226307 -48.93002706 23.60020031 -46.16981125 20.82205582 C-43.57767964 18.21340869 -40.97843613 15.61206138 -38.37365913 13.01604271 C-36.97092644 11.6144427 -35.57560442 10.20543815 -34.18055725 8.79618835 C-24.59563952 -0.72566583 -13.2641626 -7.68808081 0 0 Z " fill="#000000" transform="translate(268,301)"/>
<path d="M0 0 C1.10988281 -0.02578125 2.21976563 -0.0515625 3.36328125 -0.078125 C9.25729508 0.5036578 13.25930394 3.4525187 17.51535034 7.39744568 C18.81013117 8.59579701 18.81013117 8.59579701 20.13106918 9.81835747 C23.95596586 13.45654763 27.71830707 17.14919458 31.44189453 20.89086914 C32.65840446 22.10716003 32.65840446 22.10716003 33.89949036 23.34802246 C36.54214573 25.99136669 39.18125542 28.63822 41.8203125 31.28515625 C43.66668124 33.13339283 45.51327293 34.98140669 47.3600769 36.82920837 C51.7002172 41.17243665 56.03780573 45.51820386 60.3744458 49.86492676 C65.31816482 54.81988629 70.26477897 59.77195137 75.21161866 64.72379506 C85.373433 74.89601633 95.53167066 85.07180355 105.6875 95.25 C108.88216196 93.84101679 111.01478496 92.16686417 113.46896362 89.69558716 C114.20623688 88.95817291 114.94351013 88.22075867 115.703125 87.46099854 C116.50218262 86.65160828 117.30124023 85.84221802 118.12451172 85.00830078 C118.97377228 84.15611969 119.82303284 83.3039386 120.69802856 82.42593384 C122.54236925 80.57397965 124.38479447 78.72032674 126.22426987 76.86355972 C129.13596653 73.92477667 132.05531318 70.99367391 134.9758606 68.06369019 C141.70389626 61.31157891 148.4219007 54.54951555 155.13978577 47.78730774 C161.29263917 41.59404992 167.44761232 35.40293892 173.61075032 29.21991336 C176.03632879 26.78602369 178.45970695 24.35002287 180.8781395 21.90903091 C183.57819417 19.18503381 186.28428846 16.46717132 188.99169922 13.75048828 C189.78670837 12.94514648 190.58171753 12.13980469 191.40081787 11.31005859 C198.03396953 4.67564808 203.11213954 0.15496114 212.875 -0.0625 C218.70061655 0.00870198 223.10662027 0.4915964 227.6875 4.25 C232.73265766 9.7487793 234.83327256 14.0320674 234.9375 21.5625 C234.96328125 22.67238281 234.9890625 23.78226563 235.015625 24.92578125 C234.43953107 30.76216146 231.54331244 34.75981531 227.63638306 38.97854614 C226.83669727 39.84253147 226.03701149 40.7065168 225.2130928 41.5966835 C221.0341896 45.98692123 216.78850865 50.30481054 212.50537109 54.59326172 C211.5201539 55.58312274 210.53512856 56.57317476 209.55027771 57.56340027 C206.90620904 60.22042858 204.25895406 62.87425802 201.61063719 65.52705145 C199.95191341 67.18872765 198.29376917 68.85098012 196.63579178 70.51340103 C191.43487853 75.72793434 186.23200818 80.94050287 181.02622259 86.15017211 C175.03933107 92.14155687 169.05906436 98.13945303 163.08438241 104.14301288 C158.44570258 108.80332723 153.80125636 113.45784327 149.15241492 118.1080209 C146.38374392 120.87773693 143.61752706 123.64979969 140.85731125 126.42794418 C138.26517964 129.03659131 135.66593613 131.63793862 133.06115913 134.23395729 C131.65842644 135.6355573 130.26310442 137.04456185 128.86805725 138.45381165 C122.18940055 145.08852642 116.56799256 149.85796716 106.9375 150.5 C92.81884098 150.16136058 83.60756298 137.3199798 74.34423828 128.05200195 C73.35438728 127.06515249 72.36433496 126.07850493 71.37409973 125.09204102 C68.71714995 122.44382537 66.06335574 119.79247035 63.41044855 117.14020562 C61.74888963 115.47936222 60.08661871 113.81923483 58.42409897 112.15935326 C52.61387566 106.35834182 46.80620026 100.55479388 41.00097656 94.7487793 C35.60339496 89.35059508 30.20023765 83.95803623 24.79448712 78.56803352 C20.13590759 73.92253896 15.48120118 69.27318755 10.8294791 64.62082642 C8.05848589 61.84957891 5.28598008 59.07988842 2.50955582 56.31408119 C-0.09689832 53.71732647 -2.69848339 51.11578952 -5.29645729 48.51055145 C-6.69973496 47.10573525 -8.10794324 45.70584963 -9.51631165 44.30613708 C-16.4166215 37.37140688 -21.39799338 32.25390265 -21.625 22.0625 C-21.55379802 16.23688345 -21.0709036 11.83087973 -17.3125 7.25 C-11.8137207 2.20484234 -7.5304326 0.10422744 0 0 Z " fill="#000000" transform="translate(149.3125,63.75)"/>
</svg>
